<svg xmlns="http://www.w3.org/2000/svg" viewBox="0 0 367 80" role="img" aria-label="brillia energy"><title>brillia energy</title><g fill="#0a0a0a"><path d="M261.801025390625 -22.90008544921875Q187.70037841796875 -22.90008544921875 140.84994506835938 20.20025634765625Q93.99951171875 63.30059814453125 93.99951171875 151.00146484375V1289.5986328125Q93.99951171875 1378.199462890625 141.59991455078125 1422.0497741699219Q189.2003173828125 1465.9000854492188 263.6009521484375 1465.9000854492188Q338.0015869140625 1465.9000854492188 385.60198974609375 1422.0497741699219Q433.202392578125 1378.199462890625 433.202392578125 1288.8986206054688V893.3004760742188H440.00244140625Q482.30230712890625 990.7006225585938 568.2522888183594 1046.0506896972656Q654.2022705078125 1101.4007568359375 769.8023681640625 1101.4007568359375Q907.1024780273438 1101.4007568359375 1004.3524475097656 1035.2507629394531Q1101.6024169921875 969.1007690429688 1153.1023559570312 844.2507019042969Q1204.602294921875 719.400634765625 1204.602294921875 542.400390625Q1204.602294921875 366.10015869140625 1153.4523620605469 240.90008544921875Q1102.3024291992188 115.70001220703125 1005.6024780273438 49.550018310546875Q908.9025268554688 -16.5999755859375 772.4024658203125 -16.5999755859375Q653.5023803710938 -16.5999755859375 566.5023803710938 37.50006103515625Q479.50238037109375 91.60009765625 437.6025390625 186.50018310546875H430.802490234375V151.00146484375Q430.802490234375 63.6005859375 383.5020751953125 20.350250244140625Q336.20166015625 -22.90008544921875 261.801025390625 -22.90008544921875ZM645.3008422851562 250.50201416015625Q710.7003784179688 250.50201416015625 758.1000366210938 286.1518249511719Q805.4996948242188 321.8016357421875 831.3495178222656 387.30126953125Q857.1993408203125 452.8009033203125 857.1993408203125 542.400390625Q857.1993408203125 631.6998901367188 831.3495178222656 697.1995239257812Q805.4996948242188 762.6991577148438 757.7500305175781 798.4989624023438Q710.0003662109375 834.2987670898438 645.3008422851562 834.2987670898438Q581.80126953125 834.2987670898438 533.7516174316406 798.198974609375Q485.70196533203125 762.0991821289062 458.9521789550781 696.2495422363281Q432.202392578125 630.39990234375 431.50238037109375 541.7003784179688Q432.202392578125 452.30084228515625 458.6021728515625 387.1512145996094Q485.001953125 322.0015869140625 533.0516052246094 286.2518005371094Q581.1012573242188 250.50201416015625 645.3008422851562 250.50201416015625Z" transform="translate(8.000 66) scale(0.028320 -0.028320)"/><path d="M257.4010009765625 -22.90008544921875Q180.2003173828125 -22.90008544921875 133.99993896484375 22.350250244140625Q87.799560546875 67.6005859375 87.799560546875 153.4013671875V937.7994384765625Q87.799560546875 1019.5001831054688 133.199951171875 1063.6005249023438Q178.600341796875 1107.7008666992188 252.4010009765625 1107.7008666992188Q323.401611328125 1107.7008666992188 368.10198974609375 1063.6005249023438Q412.8023681640625 1019.5001831054688 412.8023681640625 937.0994262695312V879.1001586914062H419.6024169921875Q440.50238037109375 986.7006225585938 498.20220947265625 1044.0506896972656Q555.9020385742188 1101.4007568359375 636.7020874023438 1101.4007568359375Q667.1021118164062 1101.4007568359375 690.6021728515625 1094.2007446289062Q714.1022338867188 1087.000732421875 731.3023071289062 1073.6007080078125Q756.3025512695312 1055.2005615234375 768.8026733398438 1022.7002563476562Q781.3027954101562 990.199951171875 781.3027954101562 944.8994750976562Q781.3027954101562 864.998779296875 733.3024291992188 822.9984130859375Q709.80224609375 802.1982421875 673.5519714355469 790.7481384277344Q637.3016967773438 779.2980346679688 589.4013671875 777.8980102539062Q496.601806640625 775.7979736328125 461.8021240234375 730.4484558105469Q427.00244140625 685.0989379882812 427.00244140625 591.3990478515625V153.4013671875Q427.00244140625 67.6005859375 381.1520690917969 22.350250244140625Q335.30169677734375 -22.90008544921875 257.4010009765625 -22.90008544921875Z" transform="translate(43.627 66) scale(0.028320 -0.028320)"/><path d="M260.10089111328125 1200.999755859375Q186.0003662109375 1200.999755859375 135.45004272460938 1249.800048828125Q84.89971923828125 1298.600341796875 84.89971923828125 1369.2008056640625Q84.89971923828125 1440.80126953125 135.45004272460938 1489.1015625Q186.0003662109375 1537.40185546875 260.10089111328125 1537.40185546875Q334.50140380859375 1537.40185546875 385.0517272949219 1489.1015625Q435.60205078125 1440.80126953125 435.60205078125 1369.2008056640625Q435.60205078125 1298.600341796875 385.0517272949219 1249.800048828125Q334.50140380859375 1200.999755859375 260.10089111328125 1200.999755859375ZM260.10089111328125 -22.90008544921875Q180.8001708984375 -22.90008544921875 135.64981079101562 23.750274658203125Q90.49945068359375 70.400634765625 90.49945068359375 153.4013671875V931.3994140625Q90.49945068359375 1014.400146484375 135.64981079101562 1061.0505065917969Q180.8001708984375 1107.7008666992188 260.10089111328125 1107.7008666992188Q340.10162353515625 1107.7008666992188 384.9019775390625 1060.7005004882812Q429.70233154296875 1013.7001342773438 429.70233154296875 930.6994018554688V153.4013671875Q429.70233154296875 70.400634765625 384.9019775390625 23.750274658203125Q340.10162353515625 -22.90008544921875 260.10089111328125 -22.90008544921875Z" transform="translate(66.028 66) scale(0.028320 -0.028320)"/><path d="M263.6009521484375 -22.90008544921875Q189.2003173828125 -22.90008544921875 141.59991455078125 20.950225830078125Q93.99951171875 64.800537109375 93.99951171875 153.4013671875V1289.5986328125Q93.99951171875 1378.199462890625 141.59991455078125 1422.0497741699219Q189.2003173828125 1465.9000854492188 263.6009521484375 1465.9000854492188Q338.0015869140625 1465.9000854492188 385.60198974609375 1422.0497741699219Q433.202392578125 1378.199462890625 433.202392578125 1288.8986206054688V153.4013671875Q433.202392578125 64.800537109375 385.60198974609375 20.950225830078125Q338.0015869140625 -22.90008544921875 263.6009521484375 -22.90008544921875Z" transform="translate(80.755 66) scale(0.028320 -0.028320)"/><path d="M263.6009521484375 -22.90008544921875Q189.2003173828125 -22.90008544921875 141.59991455078125 20.950225830078125Q93.99951171875 64.800537109375 93.99951171875 153.4013671875V1289.5986328125Q93.99951171875 1378.199462890625 141.59991455078125 1422.0497741699219Q189.2003173828125 1465.9000854492188 263.6009521484375 1465.9000854492188Q338.0015869140625 1465.9000854492188 385.60198974609375 1422.0497741699219Q433.202392578125 1378.199462890625 433.202392578125 1288.8986206054688V153.4013671875Q433.202392578125 64.800537109375 385.60198974609375 20.950225830078125Q338.0015869140625 -22.90008544921875 263.6009521484375 -22.90008544921875Z" transform="translate(95.680 66) scale(0.028320 -0.028320)"/><path d="M260.10089111328125 1200.999755859375Q186.0003662109375 1200.999755859375 135.45004272460938 1249.800048828125Q84.89971923828125 1298.600341796875 84.89971923828125 1369.2008056640625Q84.89971923828125 1440.80126953125 135.45004272460938 1489.1015625Q186.0003662109375 1537.40185546875 260.10089111328125 1537.40185546875Q334.50140380859375 1537.40185546875 385.0517272949219 1489.1015625Q435.60205078125 1440.80126953125 435.60205078125 1369.2008056640625Q435.60205078125 1298.600341796875 385.0517272949219 1249.800048828125Q334.50140380859375 1200.999755859375 260.10089111328125 1200.999755859375ZM260.10089111328125 -22.90008544921875Q180.8001708984375 -22.90008544921875 135.64981079101562 23.750274658203125Q90.49945068359375 70.400634765625 90.49945068359375 153.4013671875V931.3994140625Q90.49945068359375 1014.400146484375 135.64981079101562 1061.0505065917969Q180.8001708984375 1107.7008666992188 260.10089111328125 1107.7008666992188Q340.10162353515625 1107.7008666992188 384.9019775390625 1060.7005004882812Q429.70233154296875 1013.7001342773438 429.70233154296875 930.6994018554688V153.4013671875Q429.70233154296875 70.400634765625 384.9019775390625 23.750274658203125Q340.10162353515625 -22.90008544921875 260.10089111328125 -22.90008544921875Z" transform="translate(110.604 66) scale(0.028320 -0.028320)"/><path d="M410.39990234375 -16.5999755859375Q309.49993896484375 -16.5999755859375 226.599853515625 25.2000732421875Q143.69976806640625 67.0001220703125 94.94967651367188 141.35018920898438Q46.1995849609375 215.70025634765625 46.1995849609375 312.90032958984375Q46.1995849609375 464.400634765625 158.6998291015625 548.9507141113281Q271.2000732421875 633.5007934570312 479.90057373046875 645.600830078125L738.9998779296875 661.2008056640625V725.1004028320312Q738.9998779296875 792.7999267578125 694.7501525878906 829.2996215820312Q650.5004272460938 865.79931640625 577.5010375976562 865.79931640625Q518.4014892578125 865.79931640625 477.4518127441406 844.1995239257812Q436.50213623046875 822.5997314453125 386.2020263671875 765.2000732421875Q328.90142822265625 706.3997802734375 251.90093994140625 706.3997802734375Q190.6004638671875 706.3997802734375 151.60015869140625 741.2000122070312Q112.599853515625 776.000244140625 112.599853515625 831.3005981445312Q112.599853515625 865.6005859375 124.49969482421875 895.6004638671875Q160.09954833984375 995.6007080078125 285.9499206542969 1052.7008056640625Q411.80029296875 1109.8009033203125 594.1012573242188 1109.8009033203125Q737.8016357421875 1109.8009033203125 845.1519470214844 1064.100830078125Q952.5022583007812 1018.4007568359375 1011.8524475097656 936.1006469726562Q1071.20263671875 853.800537109375 1071.20263671875 744.200439453125V147.70135498046875Q1071.20263671875 61.800537109375 1024.4022216796875 19.450225830078125Q977.601806640625 -22.90008544921875 904.5011596679688 -22.90008544921875Q836.7006225585938 -22.90008544921875 792.7002563476562 13.5001220703125Q748.6998901367188 49.90032958984375 741.6997680664062 124.6009521484375Q741.6997680664062 132.70062255859375 741.6997680664062 140.95028686523438Q741.6997680664062 149.199951171875 741.6997680664062 157.29962158203125H734.8997192382812Q705.2997436523438 101.7996826171875 653.999755859375 62.8997802734375Q602.6997680664062 23.9998779296875 539.4497985839844 3.699951171875Q476.1998291015625 -16.5999755859375 410.39990234375 -16.5999755859375ZM529.2012939453125 219.6015625Q586.0008544921875 219.6015625 633.4505310058594 241.30133056640625Q680.9002075195312 263.0010986328125 709.9500427246094 302.000732421875Q738.9998779296875 341.0003662109375 738.9998779296875 391.49993896484375V467.3997802734375L533.5011596679688 453.89984130859375Q461.4017333984375 448.9998779296875 421.7520446777344 417.60009765625Q382.10235595703125 386.2003173828125 382.10235595703125 335.30072021484375Q382.10235595703125 281.60107421875 422.6520690917969 250.601318359375Q463.2017822265625 219.6015625 529.2012939453125 219.6015625Z" transform="translate(125.331 66) scale(0.028320 -0.028320)"/></g><g fill="#8fd900"><path d="M543.2359619140625 -17.2481689453125Q317.99755859375 -17.2481689453125 190.12408447265625 123.501220703125Q62.2506103515625 264.2506103515625 62.2506103515625 515.498779296875Q62.2506103515625 680 119.7493896484375 801.8746948242188Q177.2481689453125 923.7493896484375 282.4951171875 990.498779296875Q387.7420654296875 1057.2481689453125 528.7371826171875 1057.2481689453125Q661.7371826171875 1057.2481689453125 763.1106567382812 995.3722534179688Q864.484130859375 933.496337890625 921.8576049804688 823.7445068359375Q979.2310791015625 713.99267578125 979.2310791015625 569.489013671875Q979.2310791015625 530.00732421875 957.6155395507812 507.39300537109375Q936 484.7786865234375 897.515869140625 484.7786865234375H206.415771484375Q206.415771484375 484.7786865234375 206.415771484375 484.7786865234375Q206.415771484375 484.7786865234375 206.415771484375 484.7786865234375Q206.415771484375 307.479248046875 295.9365234375 206.33074951171875Q385.457275390625 105.1822509765625 537.489013671875 105.1822509765625Q643.01953125 105.1822509765625 716.1680297851562 150.32708740234375Q789.3165283203125 195.471923828125 842.04638671875 290.990234375Q853.0390625 306.98291015625 865.6570434570312 314.2310791015625Q878.2750244140625 321.479248046875 895.518310546875 321.479248046875Q923.7518310546875 321.479248046875 940.8673706054688 304.86370849609375Q957.98291015625 288.2481689453125 957.98291015625 260.0146484375Q957.98291015625 243.2725830078125 947.489013671875 217.0341796875Q902 106.523193359375 795.3710327148438 44.63751220703125Q688.7420654296875 -17.2481689453125 543.2359619140625 -17.2481689453125ZM207.415771484375 596.2188720703125H834.3165283203125Q832.8177490234375 697.99755859375 793.55859375 774.1448364257812Q754.2994384765625 850.2921142578125 685.9064331054688 892.554931640625Q617.513427734375 934.8177490234375 526.7396240234375 934.8177490234375Q436.467041015625 934.8177490234375 366.57525634765625 892.6802368164062Q296.6834716796875 850.542724609375 255.04962158203125 774.520751953125Q213.415771484375 698.498779296875 207.415771484375 596.2188720703125Z" transform="translate(164.126 66) scale(0.028320 -0.028320)"/><path d="M183.9609375 -17.2481689453125Q153.2286376953125 -17.2481689453125 133.490234375 3.7396240234375Q113.7518310546875 24.7274169921875 113.7518310546875 57.95849609375V986.0390625Q113.7518310546875 1017.7713623046875 132.2408447265625 1037.509765625Q150.7298583984375 1057.2481689453125 179.7127685546875 1057.2481689453125Q208.9462890625 1057.2481689453125 227.435302734375 1037.509765625Q245.92431640625 1017.7713623046875 245.92431640625 986.0390625V852.94873046875H249.423095703125Q290.9169921875 945.970703125 378.05328369140625 1001.6094360351562Q465.1895751953125 1057.2481689453125 590.951171875 1057.2481689453125Q704.1993408203125 1057.2481689453125 786.2030029296875 1010.7481689453125Q868.2066650390625 964.2481689453125 912.4609375 878.2481689453125Q956.7152099609375 792.2481689453125 956.7152099609375 674.498779296875V57.95849609375Q956.7152099609375 24.7274169921875 936.976806640625 3.7396240234375Q917.2384033203125 -17.2481689453125 886.506103515625 -17.2481689453125Q855.7738037109375 -17.2481689453125 836.035400390625 3.7396240234375Q816.2969970703125 24.7274169921875 816.2969970703125 57.95849609375V651.01708984375Q816.2969970703125 785.7884521484375 746.8978881835938 859.1790161132812Q677.498779296875 932.569580078125 549.98046875 932.569580078125Q460.7127685546875 932.569580078125 394.1993408203125 892.6863403320312Q327.6859130859375 852.8031005859375 290.927978515625 781.5390625Q254.1700439453125 710.2750244140625 254.1700439453125 615.2579345703125V57.95849609375Q254.1700439453125 24.7274169921875 234.431640625 3.7396240234375Q214.6932373046875 -17.2481689453125 183.9609375 -17.2481689453125Z" transform="translate(193.607 66) scale(0.028320 -0.028320)"/><path d="M543.2359619140625 -17.2481689453125Q317.99755859375 -17.2481689453125 190.12408447265625 123.501220703125Q62.2506103515625 264.2506103515625 62.2506103515625 515.498779296875Q62.2506103515625 680 119.7493896484375 801.8746948242188Q177.2481689453125 923.7493896484375 282.4951171875 990.498779296875Q387.7420654296875 1057.2481689453125 528.7371826171875 1057.2481689453125Q661.7371826171875 1057.2481689453125 763.1106567382812 995.3722534179688Q864.484130859375 933.496337890625 921.8576049804688 823.7445068359375Q979.2310791015625 713.99267578125 979.2310791015625 569.489013671875Q979.2310791015625 530.00732421875 957.6155395507812 507.39300537109375Q936 484.7786865234375 897.515869140625 484.7786865234375H206.415771484375Q206.415771484375 484.7786865234375 206.415771484375 484.7786865234375Q206.415771484375 484.7786865234375 206.415771484375 484.7786865234375Q206.415771484375 307.479248046875 295.9365234375 206.33074951171875Q385.457275390625 105.1822509765625 537.489013671875 105.1822509765625Q643.01953125 105.1822509765625 716.1680297851562 150.32708740234375Q789.3165283203125 195.471923828125 842.04638671875 290.990234375Q853.0390625 306.98291015625 865.6570434570312 314.2310791015625Q878.2750244140625 321.479248046875 895.518310546875 321.479248046875Q923.7518310546875 321.479248046875 940.8673706054688 304.86370849609375Q957.98291015625 288.2481689453125 957.98291015625 260.0146484375Q957.98291015625 243.2725830078125 947.489013671875 217.0341796875Q902 106.523193359375 795.3710327148438 44.63751220703125Q688.7420654296875 -17.2481689453125 543.2359619140625 -17.2481689453125ZM207.415771484375 596.2188720703125H834.3165283203125Q832.8177490234375 697.99755859375 793.55859375 774.1448364257812Q754.2994384765625 850.2921142578125 685.9064331054688 892.554931640625Q617.513427734375 934.8177490234375 526.7396240234375 934.8177490234375Q436.467041015625 934.8177490234375 366.57525634765625 892.6802368164062Q296.6834716796875 850.542724609375 255.04962158203125 774.520751953125Q213.415771484375 698.498779296875 207.415771484375 596.2188720703125Z" transform="translate(223.769 66) scale(0.028320 -0.028320)"/><path d="M183.9609375 -17.2481689453125Q153.2286376953125 -17.2481689453125 133.490234375 3.7396240234375Q113.7518310546875 24.7274169921875 113.7518310546875 57.95849609375V986.0390625Q113.7518310546875 1017.7713623046875 132.11553955078125 1037.509765625Q150.479248046875 1057.2481689453125 179.96337890625 1057.2481689453125Q209.1968994140625 1057.2481689453125 227.56060791015625 1037.509765625Q245.92431640625 1017.7713623046875 245.92431640625 986.0390625V857.7200927734375H249.423095703125Q275.1798095703125 947.2408447265625 344.1834716796875 1002.2445068359375Q413.1871337890625 1057.2481689453125 497.452392578125 1057.2481689453125Q525.449951171875 1057.2481689453125 546.5776977539062 1051.6253051757812Q567.7054443359375 1046.00244140625 583.2115478515625 1034.7542724609375Q594.2115478515625 1026.2579345703125 600.3380737304688 1013.6387329101562Q606.464599609375 1001.01953125 606.464599609375 984.7738037109375Q606.464599609375 950.7884521484375 582.2213134765625 935.05126953125Q568.469482421875 926.8079833984375 547.5935668945312 925.067138671875Q526.7176513671875 923.3262939453125 492.9560546875 923.3262939453125Q371.1968994140625 923.3262939453125 312.6834716796875 842.557373046875Q254.1700439453125 761.7884521484375 254.1700439453125 646.501220703125V57.95849609375Q254.1700439453125 24.7274169921875 234.431640625 3.7396240234375Q214.6932373046875 -17.2481689453125 183.9609375 -17.2481689453125Z" transform="translate(253.250 66) scale(0.028320 -0.028320)"/><path d="M531.7469482421875 -386.2359619140625Q394.98046875 -384.7371826171875 292.48291015625 -331.85272216796875Q189.9853515625 -278.96826171875 140.498779296875 -193.2188720703125Q132.503662109375 -178.9755859375 128.38079833984375 -165.85638427734375Q124.2579345703125 -152.7371826171875 124.2579345703125 -138.493896484375Q124.2579345703125 -111.508544921875 141.99755859375 -94.518310546875Q159.7371826171875 -77.528076171875 187.7225341796875 -77.528076171875Q219.2091064453125 -77.528076171875 247.94140625 -113.01708984375Q305.418212890625 -187.2701416015625 373.56060791015625 -225.91253662109375Q441.7030029296875 -264.554931640625 537.2432861328125 -266.0537109375Q686.2652587890625 -267.552490234375 771.529296875 -189.91497802734375Q856.7933349609375 -112.2774658203125 856.7933349609375 12.7445068359375V212.8323974609375H853.2945556640625Q824.552490234375 148.3116455078125 772.548828125 97.66680908203125Q720.545166015625 47.02197265625 651.2823486328125 18.63385009765625Q582.01953125 -9.7542724609375 500.7493896484375 -9.7542724609375Q369.7518310546875 -9.7542724609375 270.7518310546875 56.2469482421875Q171.7518310546875 122.2481689453125 117.001220703125 242.37347412109375Q62.2506103515625 362.498779296875 62.2506103515625 522.99755859375Q62.2506103515625 684.9951171875 117.12652587890625 805.1204223632812Q172.00244140625 925.2457275390625 271.62652587890625 991.2469482421875Q371.2506103515625 1057.2481689453125 503.7469482421875 1057.2481689453125Q586.2677001953125 1057.2481689453125 653.9064331054688 1028.6094360351562Q721.545166015625 999.970703125 772.548828125 949.951171875Q823.552490234375 899.931640625 854.0439453125 834.1651611328125H856.7933349609375V984.2896728515625Q856.7933349609375 1017.7713623046875 877.03173828125 1037.509765625Q897.2701416015625 1057.2481689453125 927.00244140625 1057.2481689453125Q957.484130859375 1057.2481689453125 977.3478393554688 1037.509765625Q997.2115478515625 1017.7713623046875 997.2115478515625 984.2896728515625V17.7420654296875Q997.2115478515625 -103.501220703125 940.5911254882812 -194.87103271484375Q883.970703125 -286.2408447265625 779.7286376953125 -336.61309814453125Q675.486572265625 -386.9853515625 531.7469482421875 -386.2359619140625ZM527.7298583984375 114.425537109375Q625.99755859375 114.425537109375 699.8869018554688 165.56060791015625Q773.7762451171875 216.6956787109375 815.2847900390625 308.83685302734375Q856.7933349609375 400.97802734375 856.7933349609375 522.99755859375Q856.7933349609375 646.01708984375 815.2847900390625 738.1582641601562Q773.7762451171875 830.2994384765625 699.7615966796875 881.8092041015625Q625.7469482421875 933.3189697265625 527.7298583984375 933.3189697265625Q431.462158203125 933.3189697265625 358.57281494140625 882.6838989257812Q285.6834716796875 832.048828125 245.6749267578125 739.7823486328125Q205.6663818359375 647.515869140625 205.6663818359375 522.7469482421875Q205.6663818359375 398.97802734375 245.6749267578125 306.962158203125Q285.6834716796875 214.9462890625 358.447509765625 164.6859130859375Q431.2115478515625 114.425537109375 527.7298583984375 114.425537109375Z" transform="translate(270.752 66) scale(0.028320 -0.028320)"/><path d="M203.2213134765625 -378.7249755859375Q150.99755859375 -378.7249755859375 121.00732421875 -360.4853515625Q91.01708984375 -342.2457275390625 91.01708984375 -307.510986328125Q91.01708984375 -283.7738037109375 106.13385009765625 -269.65704345703125Q121.2506103515625 -255.540283203125 147.7347412109375 -255.540283203125Q163.97802734375 -255.540283203125 173.476806640625 -256.54150390625Q182.9755859375 -257.542724609375 201.7225341796875 -257.542724609375Q256.484130859375 -257.542724609375 300.48291015625 -219.41253662109375Q344.481689453125 -181.2823486328125 378.990234375 -82.7713623046875L405.99755859375 -5.510986328125L38.2237548828125 955.3067626953125Q30.97802734375 976.2945556640625 30.97802734375 992.535400390625Q30.97802734375 1021.7689208984375 51.2164306640625 1039.508544921875Q71.454833984375 1057.2481689453125 101.6883544921875 1057.2481689453125Q126.92431640625 1057.2481689453125 142.91455078125 1045.3795776367188Q158.90478515625 1033.510986328125 168.6492919921875 1005.2774658203125L478.7054443359375 139.6663818359375H481.454833984375L792.2603759765625 1005.2774658203125Q810.2506103515625 1057.2481689453125 858.471923828125 1057.2481689453125Q889.454833984375 1057.2481689453125 908.5691528320312 1039.1338500976562Q927.6834716796875 1021.01953125 927.6834716796875 992.535400390625Q927.6834716796875 976.2945556640625 920.437744140625 955.3067626953125L531.425537109375 -64.98046875Q485.92431640625 -185.484130859375 441.30511474609375 -254.2322998046875Q396.6859130859375 -322.98046875 340.1968994140625 -350.85272216796875Q283.7078857421875 -378.7249755859375 203.2213134765625 -378.7249755859375Z" transform="translate(302.188 66) scale(0.028320 -0.028320)"/></g></svg>
